<?xml version="1.0" encoding="utf-8"?>
<!-- Generator: Adobe Illustrator 19.0.0, SVG Export Plug-In . SVG Version: 6.00 Build 0)  -->
<svg version="1.1" id="Layer_1" xmlns="http://www.w3.org/2000/svg" xmlns:xlink="http://www.w3.org/1999/xlink" x="0px" y="0px"
	 viewBox="0 0 800 200" style="enable-background:new 0 0 800 200;" xml:space="preserve">
<style type="text/css">
	.st0{stroke:#FFFFFF;stroke-width:0.25;stroke-miterlimit:10;}
	.st1{fill:none;}
	.st2{fill:#FFF200;}
	.st3{font-family:'MyriadPro-Regular';}
	.st4{font-size:12px;}
	.st5{fill:#A7A9AC;}
	.st6{font-family:'Rockwell-ExtraBold';}
	.st7{fill:#BCBEC0;}
	.st8{fill:#E6E7E8;}
</style>
<rect id="XMLID_1_" x="290.5" y="74.7" class="st0" width="68.8" height="26.7"/>
<rect id="XMLID_2_" x="291.4" y="88.1" class="st1" width="67.1" height="12.1"/>
<text id="XMLID_3_" transform="matrix(1 0 0 1 291.3835 96.5746)" class="st2 st3 st4">@Copyrights</text>
<rect id="XMLID_4_" x="367.1" y="90.8" class="st1" width="91.1" height="21.2"/>
<text id="XMLID_5_" transform="matrix(1 0 0 1 367.0684 99.3145)" class="st3 st4">Designer smruti .</text>
<rect id="XMLID_6_" x="24.9" y="51.8" class="st1" width="187.7" height="60.3"/>
<rect id="XMLID_8_" x="17.4" y="83.9" transform="matrix(0.6579 -0.7531 0.7531 0.6579 -46.3915 97.8793)" class="st1" width="134.2" height="32.2"/>
<text id="XMLID_9_" transform="matrix(1 0 0 1 103.2839 61.406)"><tspan x="0" y="0" class="st5 st6 st4">Get </tspan><tspan x="-12.6" y="14.4" class="st5 st6 st4">your</tspan><tspan x="-25.2" y="28.8" class="st5 st6 st4">self </tspan><tspan x="-37.7" y="43.2" class="st5 st6 st4">this </tspan><tspan x="-50.3" y="57.6" class="st5 st6 st4">type </tspan><tspan x="-62.9" y="72" class="st5 st6 st4">of </tspan><tspan x="-66.1" y="86.4" class="st5 st6 st4">thi</tspan></text>
<rect id="XMLID_10_" x="532.8" y="88.5" transform="matrix(0.7241 0.6897 -0.6897 0.7241 258.1899 -435.0695)" class="st1" width="280.2" height="33.4"/>
<text id="XMLID_11_" transform="matrix(1 0 0 1 568.4568 19.0223)"><tspan x="0" y="0" class="st7 st6 st4">Lea</tspan><tspan x="4.9" y="14.4" class="st7 st6 st4">rn </tspan><tspan x="20" y="28.8" class="st7 st6 st4">html </tspan><tspan x="35.2" y="43.2" class="st7 st6 st4">&amp; css </tspan><tspan x="50.3" y="57.6" class="st7 st6 st4">from </tspan><tspan x="65.4" y="72" class="st7 st6 st4">web</tspan><tspan x="95.5" y="72" class="st7 st6 st4">-</tspan><tspan x="80.5" y="86.4" class="st7 st6 st4">site </tspan><tspan x="95.6" y="100.8" class="st7 st6 st4">and </tspan><tspan x="110.7" y="115.2" class="st7 st6 st4">creat</tspan><tspan x="125.9" y="129.6" class="st7 st6 st4">e this </tspan><tspan x="141" y="144" class="st7 st6 st4">thing</tspan><tspan x="180" y="144" class="st8 st6 st4"> </tspan><tspan x="156.1" y="158.4" class="st7 st6 st4">right </tspan><tspan x="171.2" y="172.8" class="st7 st6 st4">here.</tspan></text>
</svg>
