<?xml version="1.0" encoding="utf-8"?>
<!-- Generator: Adobe Illustrator 19.0.0, SVG Export Plug-In . SVG Version: 6.00 Build 0)  -->
<svg version="1.1" id="Layer_1" xmlns="http://www.w3.org/2000/svg" xmlns:xlink="http://www.w3.org/1999/xlink" x="0px" y="0px"
	 viewBox="0 0 50 50" style="enable-background:new 0 0 50 50;" xml:space="preserve">
<style type="text/css">
	.st0{fill:#FFFFFF;stroke:#000000;stroke-miterlimit:10;}
	.st1{fill:#27AAE1;stroke:#ED1C24;stroke-width:0.25;stroke-miterlimit:10;}
	.st2{fill:#F9ED32;stroke:#92278F;stroke-width:0.25;stroke-miterlimit:10;}
	.st3{fill:#00AEEF;stroke:#ED1C24;stroke-width:0.25;stroke-miterlimit:10;}
	.st4{fill:none;}
    </style>
<path id="XMLID_1_" class="st0" d="M8.6,44.1"/>
<rect id="XMLID_2_" x="13.5" y="44.9" class="st1" width="20.7" height="3.1"/>
<path id="XMLID_3_" class="st1" d="M48.4,28.1h-1.8c-0.3,0-0.5-0.2-0.5-0.5V17.3c0-0.3,0.2-0.5,0.5-0.5h1.8c0.3,0,0.5,0.2,0.5,0.5
	v10.3C48.9,27.8,48.7,28.1,48.4,28.1z"/>
<path id="XMLID_6_" class="st1" d="M3.2,29H1.4c-0.3,0-0.5-0.2-0.5-0.5V18.2c0-0.3,0.2-0.5,0.5-0.5h1.8c0.3,0,0.5,0.2,0.5,0.5v10.3
	C3.7,28.8,3.5,29,3.2,29z"/>
<ellipse id="ball" id="XMLID_5_" class="st2" cx="25.5" cy="23.3" rx="3.7" ry="3.6"/>
<rect id="XMLID_4_" x="11.8" y="1.3" class="st3" width="20.7" height="3.1"/>
<rect id="XMLID_9_" x="17.3" y="21.6" class="st4" width="10.8" height="3.4"/>
</svg>
