<svg version="1.1" xmlns="http://www.w3.org/2000/svg" xmlns:xlink="http://www.w3.org/1999/xlink" x="0px" y="0px"
	 viewBox="0 0 612 792" style="enable-background:new 0 0 612 792;" xml:space="preserve">
<style type="text/css">
	.st0{fill:#A97C50;stroke:#000000;stroke-miterlimit:10;}
	.st1{fill:none;}
	.st2{font-family:'MyriadPro-Regular';}
	.st3{font-size:24px;}
</style>
<g id="Layer_1">
	<path id="XMLID_1_" class="st0" d="M289.1,178h-10.5c-9.3,0-16.9-7.6-16.9-16.9V148c0-9.3,7.6-16.9,16.9-16.9h10.5
		c9.3,0,16.9,7.6,16.9,16.9v13.1C306,170.4,298.4,178,289.1,178z"/>
	<rect id="XMLID_2_" x="279.5" y="145.5" class="st1" width="37" height="37"/>
	<text id="XMLID_3_" transform="matrix(1 0 0 1 279.5 162.54)" class="st2 st3">f</text>
	<path id="XMLID_4_" class="st1" d="M292.7,271.3l-13.2,1.3c-8.5,0.8-16.1-5.5-16.9-14l-1.5-15.4c-0.8-8.5,5.5-16.1,14-16.9
		l13.2-1.3c8.5-0.8,16.1,5.5,16.9,14l1.5,15.4C307.4,262.9,301.2,270.5,292.7,271.3z"/>
	<path id="XMLID_6_" class="st0" d="M291.6,224.9h-15.4c-8,0-14.4-6.5-14.4-14.4v-18c0-8,6.5-14.4,14.4-14.4h15.4
		c8,0,14.4,6.5,14.4,14.4v18C306,218.4,299.5,224.9,291.6,224.9z"/>
	<rect id="XMLID_7_" x="280" y="190" class="st1" width="52" height="48"/>
	<text id="XMLID_8_" transform="matrix(1 0 0 1 280 207.04)" class="st2 st3">g</text>
</g>
<g id="Layer_2">
</g>
</svg>
