<?xml version="1.0" encoding="utf-8"?>
<!-- Generator: Adobe Illustrator 19.0.0, SVG Export Plug-In . SVG Version: 6.00 Build 0)  -->
<svg version="1.1" id="Layer_1" xmlns="http://www.w3.org/2000/svg" xmlns:xlink="http://www.w3.org/1999/xlink" x="0px" y="0px"
	 viewBox="0 0 612 300" style="enable-background:new 0 0 612 300;" xml:space="preserve">
<style type="text/css">
	.st0{opacity:0.35;fill:#2B3990;stroke:#000000;stroke-width:0.25;stroke-miterlimit:10;}
	.st1{fill:none;}
	.st2{font-family:'Rockwell-ExtraBold';}
	.st3{font-size:11px;}
	.st4{font-size:12px;}
</style>
<path id="XMLID_1_" class="st0" d="M208,268.8H62.2c-11.9,0-21.5-9.6-21.5-21.5V146.6c0-11.9,9.6-21.5,21.5-21.5H208
	c11.9,0,21.5,9.6,21.5,21.5v100.8C229.4,259.2,219.8,268.8,208,268.8z"/>
<rect id="XMLID_2_" x="280.1" y="101.2" class="st1" width="278.9" height="181.8"/>
<text id="XMLID_3_" transform="matrix(1 0 0 1 280.0565 108.7095)"><tspan x="0" y="0" class="st2 st3">Get yourself with it. Its a great thing. I am </tspan><tspan x="0" y="13.2" class="st2 st3">learning that. You also learn.Lorem </tspan><tspan x="0" y="26.4" class="st2 st3">Ipsum is simply dummy text of the print</tspan><tspan x="262" y="26.4" class="st2 st3">-</tspan><tspan x="0" y="39.6" class="st2 st3">ing and typesetting industry. Lorem </tspan><tspan x="0" y="52.8" class="st2 st3">Ipsum has been the industry&apos;s standard </tspan><tspan x="0" y="66" class="st2 st3">dummy text ever since the 1500s, when an </tspan><tspan x="0" y="79.2" class="st2 st3">unknown printer took a galley of type and </tspan><tspan x="0" y="92.4" class="st2 st3">scrambled it to make a type specimen </tspan><tspan x="0" y="105.6" class="st2 st3">book. It has survived not only five centu</tspan><tspan x="261.4" y="105.6" class="st2 st3">-</tspan><tspan x="0" y="118.8" class="st2 st3">ries, but also the leap into electronic type</tspan><tspan x="272.1" y="118.8" class="st2 st3">-</tspan><tspan x="0" y="132" class="st2 st3">setting, remaining essentially un</tspan><tspan x="218.6" y="132" class="st2 st3">-</tspan><tspan x="0" y="145.2" class="st2 st3">changed. It was popularised in the 1960s </tspan><tspan x="0" y="158.4" class="st2 st3">with the release of Letraset sheets con</tspan><tspan x="250.5" y="158.4" class="st2 st3">-</tspan><tspan x="0" y="172.8" class="st2 st3">taining Lorem Ipsum </tspan><tspan x="142.1" y="172.8" class="st2 st4">passages, and </tspan></text>
</svg>
