<svg version="1.1" id="Layer_1" xmlns="http://www.w3.org/2000/svg" xmlns:xlink="http://www.w3.org/1999/xlink" x="0px" y="0px"
	 viewBox="0 0 612 300" style="enable-background:new 0 0 612 300;" xml:space="preserve">
<style type="text/css">
	.st0{fill:none;}
	.st1{font-family:'PlantagenetCherokee';}
	.st2{font-size:14px;}
	.st3{fill:#BCBEC0;}
	.st4{fill:#00A651;}
	.st5{font-family:'PalatinoLinotype-Roman';}
	.st6{font-size:10px;}
	.st7{fill:#939598;}
</style>
<rect id="XMLID_4_" x="50" y="98.6" class="st0" width="159.2" height="183.2"/>
<rect id="XMLID_6_" x="16.8" y="92.6" class="st0" width="174.3" height="120.7"/>
<text id="XMLID_7_" transform="matrix(1 0 0 1 16.7697 102.3234)"><tspan x="0" y="0" class="st1 st2">first step is made by writing </tspan><tspan x="0" y="16.8" class="st1 st2">customized html and css </tspan><tspan x="0" y="33.6" class="st1 st2">codes.</tspan><tspan x="0" y="50.4" class="st1 st2">Drawing suffs and making </tspan><tspan x="0" y="67.2" class="st1 st2">layouts in adobe illustartor. </tspan><tspan x="0" y="84" class="st1 st2">Use</tspan><tspan x="0" y="100.8" class="st1 st2">them in my website.</tspan></text>
<rect id="XMLID_2_" x="42.2" y="59.8" class="st0" width="19.4" height="19.9"/>
<path id="XMLID_9_" class="st3" d="M34.8,79.7H18.1c-0.7,0-1.3-0.6-1.3-1.3V61.1c0-0.7,0.6-1.3,1.3-1.3h16.8c0.7,0,1.3,0.6,1.3,1.3
	v17.3C36.1,79.1,35.6,79.7,34.8,79.7z"/>
<rect id="XMLID_10_" x="40.4" y="66.2" class="st0" width="36.1" height="12.8"/>
<text id="XMLID_11_" transform="matrix(1 0 0 1 40.3533 73.4668)" class="st4 st5 st6">Step-1</text>
<rect id="XMLID_1_" x="234.6" y="59.8" class="st3" width="19.4" height="19.9"/>
<rect id="XMLID_16_" x="261.2" y="66.2" class="st0" width="36.1" height="12.8"/>
<text id="XMLID_14_" transform="matrix(1 0 0 1 261.2355 73.4668)" class="st4 st5 st6">Step-2</text>
<rect id="XMLID_15_" x="461.8" y="66.2" class="st0" width="36.1" height="12.8"/>
<text id="XMLID_3_" transform="matrix(1 0 0 1 461.7957 73.4668)" class="st4 st5 st6">Step-3</text>
<path id="XMLID_17_" class="st7" d="M455.2,79.7h-15.5c-1.1,0-1.9-0.9-1.9-1.9V61.7c0-1.1,0.9-1.9,1.9-1.9h15.5
	c1.1,0,1.9,0.9,1.9,1.9v16.1C457.1,78.9,456.2,79.7,455.2,79.7z"/>
<rect id="XMLID_19_" x="223.1" y="92.6" class="st0" width="174.3" height="120.7"/>
<text id="XMLID_18_" transform="matrix(1 0 0 1 223.076 102.3234)"><tspan x="0" y="0" class="st1 st2">Second step is to complete </tspan><tspan x="0" y="16.8" class="st1 st2">this website &amp; putting thins </tspan><tspan x="0" y="33.6" class="st1 st2">together to make a great </tspan><tspan x="0" y="50.4" class="st1 st2">thing. </tspan></text>
<rect id="XMLID_21_" x="430.4" y="92.6" class="st0" width="174.3" height="120.7"/>
<text id="XMLID_20_" transform="matrix(1 0 0 1 430.4058 102.3234)"><tspan x="0" y="0" class="st1 st2">Third and final step is pub</tspan><tspan x="162" y="0" class="st1 st2">-</tspan><tspan x="0" y="16.8" class="st1 st2">lishing the website online </tspan><tspan x="0" y="33.6" class="st1 st2">so others can see it.</tspan></text>
</svg>
